<svg xmlns="http://www.w3.org/2000/svg" xmlns:xlink="http://www.w3.org/1999/xlink" version="1.1" width="512px" height="512px" style="shape-rendering:geometricPrecision; text-rendering:geometricPrecision; image-rendering:optimizeQuality; fill-rule:evenodd; clip-rule:evenodd">
<g><path style="opacity:0.934" fill="#f55f8d" d="M 251.5,15.5 C 254.187,15.3359 256.854,15.5026 259.5,16C 295.253,50.8594 315.086,93.3594 319,143.5C 320.132,160.156 319.298,176.656 316.5,193C 328,206.5 339.5,220 351,233.5C 353.838,237.172 356.171,241.172 358,245.5C 359.584,257.776 359.917,270.109 359,282.5C 355.135,288.117 350.302,288.951 344.5,285C 327.755,275.879 311.255,266.379 295,256.5C 292.833,260.167 290.667,263.833 288.5,267.5C 291.146,276.749 293.479,286.083 295.5,295.5C 295.451,299.104 293.784,301.604 290.5,303C 266.412,303.98 242.412,303.646 218.5,302C 216.556,300.278 215.556,298.111 215.5,295.5C 217.521,286.083 219.854,276.749 222.5,267.5C 220.333,263.833 218.167,260.167 216,256.5C 198.411,267.046 180.577,277.213 162.5,287C 157.726,288.361 154.226,286.861 152,282.5C 151.083,270.109 151.416,257.776 153,245.5C 154.829,241.172 157.162,237.172 160,233.5C 171.5,220 183,206.5 194.5,193C 185.04,131.999 199.54,77.4985 238,29.5C 242.703,24.9645 247.203,20.2979 251.5,15.5 Z M 254.5,35.5 C 256.716,36.2026 258.549,37.5359 260,39.5C 270.076,51.5907 278.576,64.7573 285.5,79C 265.5,79.6667 245.5,79.6667 225.5,79C 233.316,63.181 242.983,48.681 254.5,35.5 Z M 218.5,95.5 C 243.562,94.8485 268.395,95.5152 293,97.5C 310.934,152.159 305.767,204.493 277.5,254.5C 262.833,255.833 248.167,255.833 233.5,254.5C 204.827,203.77 199.827,150.77 218.5,95.5 Z M 250.5,135.5 C 264.805,134.639 271.638,141.305 271,155.5C 264.064,168.701 254.731,170.701 243,161.5C 236.903,150.294 239.403,141.628 250.5,135.5 Z M 197.5,213.5 C 198.117,213.611 198.617,213.944 199,214.5C 201.84,224.016 204.84,233.349 208,242.5C 194.83,250.419 181.497,258.086 168,265.5C 166.939,259.276 167.606,253.276 170,247.5C 179.403,236.273 188.57,224.94 197.5,213.5 Z M 312.5,213.5 C 322.136,224.643 331.636,235.976 341,247.5C 343.394,253.276 344.061,259.276 343,265.5C 329.83,257.581 316.497,249.914 303,242.5C 306.238,232.952 309.404,223.285 312.5,213.5 Z M 237.5,271.5 C 249.5,271.5 261.5,271.5 273.5,271.5C 274.446,276.783 275.779,281.95 277.5,287C 262.833,287.667 248.167,287.667 233.5,287C 235.221,281.95 236.554,276.783 237.5,271.5 Z"/></g>
<g><path style="opacity:0.927" fill="#f55f8d" d="M 248.5,119.5 C 268.775,117.374 281.608,126.04 287,145.5C 287.427,173.072 273.927,185.238 246.5,182C 229.722,175.619 222.222,163.452 224,145.5C 227.25,132.086 235.417,123.419 248.5,119.5 Z M 250.5,135.5 C 239.403,141.628 236.903,150.294 243,161.5C 254.731,170.701 264.064,168.701 271,155.5C 271.638,141.305 264.805,134.639 250.5,135.5 Z"/></g>
<g><path style="opacity:0.948" fill="#f55f8d" d="M 511.5,451.5 C 511.5,460.833 511.5,470.167 511.5,479.5C 508.259,487.238 502.592,492.404 494.5,495C 335.167,495.667 175.833,495.667 16.5,495C 8.08137,492.744 2.4147,487.577 -0.5,479.5C -0.5,470.167 -0.5,460.833 -0.5,451.5C 1.11327,449.73 3.11327,448.564 5.5,448C 16.8284,447.5 28.1618,447.333 39.5,447.5C 39.3333,354.166 39.5,260.833 40,167.5C 43.0696,156.499 49.9029,148.999 60.5,145C 79.4506,143.858 98.4506,143.358 117.5,143.5C 135.167,143.667 152.833,143.833 170.5,144C 175.752,147.086 176.752,151.253 173.5,156.5C 172.335,157.584 171.002,158.417 169.5,159C 135.167,159.333 100.833,159.667 66.5,160C 61.6667,162.167 58.1667,165.667 56,170.5C 55.5,262.833 55.3333,355.166 55.5,447.5C 63.5,447.5 71.5,447.5 79.5,447.5C 78.1862,410.66 95.1862,387.16 130.5,377C 139.227,374.901 147.893,375.067 156.5,377.5C 170.257,355.204 189.757,347.537 215,354.5C 222.96,326.602 241.126,315.769 269.5,322C 284.133,328.096 292.966,338.93 296,354.5C 321.243,347.537 340.743,355.204 354.5,377.5C 385.556,372.445 409.056,383.445 425,410.5C 430.575,422.211 432.742,434.545 431.5,447.5C 439.5,447.5 447.5,447.5 455.5,447.5C 455.667,355.166 455.5,262.833 455,170.5C 452.833,165.667 449.333,162.167 444.5,160C 410.167,159.667 375.833,159.333 341.5,159C 336.898,156.962 335.064,153.462 336,148.5C 336.833,146.333 338.333,144.833 340.5,144C 358.167,143.833 375.833,143.667 393.5,143.5C 412.549,143.358 431.549,143.858 450.5,145C 461.097,148.999 467.93,156.499 471,167.5C 471.5,260.833 471.667,354.166 471.5,447.5C 482.838,447.333 494.172,447.5 505.5,448C 507.887,448.564 509.887,449.73 511.5,451.5 Z M 197.5,213.5 C 188.57,224.94 179.403,236.273 170,247.5C 167.606,253.276 166.939,259.276 168,265.5C 181.497,258.086 194.83,250.419 208,242.5C 204.84,233.349 201.84,224.016 199,214.5C 198.617,213.944 198.117,213.611 197.5,213.5 Z M 312.5,213.5 C 309.404,223.285 306.238,232.952 303,242.5C 316.497,249.914 329.83,257.581 343,265.5C 344.061,259.276 343.394,253.276 341,247.5C 331.636,235.976 322.136,224.643 312.5,213.5 Z M 237.5,271.5 C 236.554,276.783 235.221,281.95 233.5,287C 248.167,287.667 262.833,287.667 277.5,287C 275.779,281.95 274.446,276.783 273.5,271.5C 261.5,271.5 249.5,271.5 237.5,271.5 Z M 251.5,335.5 C 273.438,336.764 282.105,348.097 277.5,369.5C 278.907,375.417 282.573,377.917 288.5,377C 305.788,363.517 321.954,364.684 337,380.5C 339.471,385.286 342.304,389.786 345.5,394C 354.459,393.008 363.459,392.342 372.5,392C 395.321,395.82 409.487,408.986 415,431.5C 415.499,436.823 415.666,442.156 415.5,447.5C 324.499,447.333 233.499,447.5 142.5,448C 136.37,449.414 134.204,453.247 136,459.5C 136.5,461.333 137.667,462.5 139.5,463C 258.5,463.5 377.5,463.667 496.5,463.5C 497.359,469.588 495.693,474.755 491.5,479C 490.167,479.333 488.833,479.667 487.5,480C 332.833,480.667 178.167,480.667 23.5,480C 20.262,479.768 17.762,478.268 16,475.5C 14.8436,471.582 14.3436,467.582 14.5,463.5C 48.1683,463.667 81.835,463.5 115.5,463C 120.684,458.292 120.684,453.625 115.5,449C 108.924,447.623 102.257,447.123 95.5,447.5C 93.7451,424.169 103.078,407.002 123.5,396C 128.342,394.052 133.342,392.719 138.5,392C 147.541,392.342 156.541,393.008 165.5,394C 168.696,389.786 171.529,385.286 174,380.5C 189.046,364.684 205.212,363.517 222.5,377C 228.671,377.834 232.338,375.167 233.5,369C 229.142,352.215 235.142,341.048 251.5,335.5 Z"/></g>
</svg>