<svg id="Layer_1" height="512" viewBox="0 0 64 64" width="512" xmlns="http://www.w3.org/2000/svg"><g><g><g><g><path d="m21.039 13.859c-.357 0-.703-.192-.883-.529l-1.291-2.419c-.26-.487-.074-1.093.412-1.353.488-.26 1.094-.075 1.354.411l1.291 2.419c.26.487.074 1.093-.412 1.353-.151.08-.311.118-.471.118z" fill="rgb(0,0,0)"/></g><g><path d="m30.768 11.658c-.553 0-1-.446-1-.998l-.006-2.734c0-.553.445-1.001.998-1.002h.002c.553 0 1 .446 1 .998l.006 2.734c0 .553-.447 1.001-.998 1.002-.002 0-.002 0-.002 0z" fill="rgb(0,0,0)"/></g><g><path d="m41.018 14.277c-.16 0-.322-.038-.473-.119-.486-.262-.668-.867-.408-1.354l1.299-2.415c.26-.486.867-.67 1.354-.407.486.262.668.867.408 1.354l-1.299 2.415c-.18.336-.526.526-.881.526z" fill="rgb(0,0,0)"/></g><g><path d="m46.656 25.105c-.008 0-.016 0-.025 0l-2.762-.066c-.553-.014-.99-.472-.977-1.024.014-.552.5-.969 1.023-.976l2.764.066c.553.014.988.472.975 1.024-.011.545-.457.976-.998.976z" fill="rgb(0,0,0)"/></g><g><path d="m17.42 24.528c-.01 0-.018 0-.025 0l-2.764-.066c-.551-.014-.988-.472-.975-1.024.014-.552.492-.974 1.023-.976l2.764.066c.551.014.988.472.975 1.024-.012.545-.457.976-.998.976z" fill="rgb(0,0,0)"/></g></g><g><g><path d="m34.744 42.252c-.016 0-.031 0-.047-.001-.553-.025-.979-.494-.953-1.046.191-4.113 1.498-7.839 3.779-10.772 1.129-1.452 1.746-3.192 1.781-5.033.049-2.416-.943-4.754-2.725-6.414-1.838-1.713-4.248-2.528-6.789-2.301-3.807.35-7.047 3.293-7.707 6.998-.387 2.166.055 4.358 1.24 6.173 2.322 3.562 3.549 7.44 3.553 11.22 0 .553-.447 1.001-1 1.001-.553 0-1-.447-1-.999-.004-3.392-1.119-6.894-3.227-10.129-1.467-2.241-2.012-4.947-1.535-7.616.828-4.648 4.73-8.201 9.494-8.64 3.074-.271 6.107.755 8.334 2.83 2.197 2.048 3.422 4.934 3.361 7.918-.045 2.273-.807 4.425-2.203 6.22-2.025 2.605-3.188 5.938-3.359 9.639-.024.534-.466.952-.997.952z" fill="rgb(0,0,0)"/></g><g><path d="m34.102 47.604c-.006 0-.037 0-.043 0l-7.756-.153c-.584-.012-1.127-.249-1.529-.67-.404-.42-.619-.972-.607-1.555l.084-4.182c.01-.545.455-.979.998-.979h.021l10.115.199c.266.006.518.116.701.307.184.191.283.448.279.714l-.084 4.184c-.023 1.177-1.002 2.135-2.179 2.135zm-7.873-5.52-.063 3.183c-.002.085.09.183.176.184l7.756.153.004 1v-1c.098 0 .178-.079.18-.177l.064-3.183z" fill="rgb(0,0,0)"/></g><g><path d="m30.646 50.018c-.023 0-.047-.001-.07-.001l-.891-.018c-.938-.019-1.809-.396-2.459-1.064-.652-.671-1.002-1.555-.982-2.486.012-.553.459-.967 1.02-.98.553.011.99.468.98 1.02-.01.395.139.768.416 1.053.281.288.658.451 1.064.459l.891.018c.863-.019 1.523-.635 1.541-1.452.01-.552.424-.966 1.02-.979.553.012.99.468.98 1.021-.039 1.892-1.607 3.409-3.51 3.409z" fill="rgb(0,0,0)"/></g><g><path d="m35.311 44.945c-.006 0-.014 0-.02 0l-10.115-.2c-.553-.011-.99-.468-.98-1.02.012-.553.467-.954 1.02-.98l10.115.2c.553.011.992.468.98 1.02-.012.546-.457.98-1 .98z" fill="rgb(0,0,0)"/></g></g></g><g><g><g><path d="m40.65 64-27.611-.001c-.363 0-.697-.197-.873-.514s-.168-.706.025-1.014c4.324-6.961 2.627-15.967.541-20.009-.367-.713-.854-1.365-1.367-2.057-.35-.47-.699-.942-1.02-1.437-5.357-8.313-3.125-19.438-3.027-19.908 2.547-11.229 12.311-19.06 23.745-19.06 3.611 0 12.582.694 17.885 7.122 3.619 4.387 4.736 10.47 3.322 18.087l4.736 11.051c.342.812.281 1.705-.166 2.456-.445.749-1.197 1.228-2.063 1.313l-2.064.196.133 6.081c0 .04 0 .08-.004.12-.359 3.619-3.359 6.349-6.977 6.349h-6.584c.102 3.31.797 7.465 2.213 9.688.195.308.209.698.033 1.019-.175.319-.511.518-.877.518zm-25.912-2.001 24.278.001c-1.229-2.904-1.768-7.021-1.746-10.232.004-.55.451-.993 1-.993h7.596c2.566 0 4.697-1.926 4.98-4.488l-.154-6.948c-.01-.523.385-.968.906-1.017l2.986-.283c.223-.022.42-.148.537-.345.119-.199.135-.437.045-.651l-4.855-11.326c-.08-.184-.102-.387-.063-.584 1.383-7.144.426-12.775-2.844-16.737-4.761-5.773-13.013-6.396-16.341-6.396-10.495 0-19.456 7.19-21.792 17.487-.018.089-2.152 10.784 2.756 18.398.295.458.619.893.943 1.328.539.725 1.096 1.475 1.539 2.331 2.137 4.144 3.897 13.052.229 20.455z" fill="rgb(0,0,0)"/></g></g></g></g></svg>